<svg t="1754009048352" class="icon" viewBox="0 0 1024 1024" version="1.1" xmlns="http://www.w3.org/2000/svg" p-id="2325" width="16" height="16"><path d="M960.1 122.5c0-27.3-22.4-49.7-49.7-49.7h-276C444.6 218.2 277.7 396.6 65.5 461.9v223.5c0 26.7 21.9 48.6 48.6 48.6h138.2c254.1-123 477.9-278.5 707.8-437.4V122.5z" fill="#FFC166" p-id="2326"></path><path d="M252.3 734h134.1c16.1 0 29.2 13.1 29.2 29.2V841c0 16.1-13.1 29.2-29.2 29.2h-87.5c-21.5 0-38.9 17.4-38.9 38.9s17.4 38.9 38.9 38.9l428-0.1c21.4 0 38.8-17.4 38.8-38.8s-17.3-38.8-38.7-38.9h-87.8c-16.1 0-29-13.1-29-29.2v-77.8c0-16.1 13.1-29.2 29.2-29.2h272.3c26.7 0 48.6-21.9 48.6-48.6V296.6C730.2 455.5 506.4 611 252.3 734z" fill="#FFB000" p-id="2327"></path><path d="M114.1 72.8c-26.7 0-48.6 21.9-48.6 48.6v340.5c212.2-65.2 379.1-243.7 568.8-389.1H114.1z" fill="#FFD98D" p-id="2328"></path><path d="M415.6 238.1h38.9c10.7 0 19.4-8.7 19.4-19.4v-38.9c0-10.7 8.7-19.4 19.4-19.4h38.9c10.7 0 19.4 8.7 19.4 19.4v38.9c0 10.7 8.7 19.4 19.4 19.4h39c10.7 0 19.4 8.7 19.4 19.4v38.9c0 10.7-8.7 19.4-19.4 19.4h-38.9c-10.7 0-19.4 8.7-19.4 19.4v38.9c0 10.7-8.7 19.4-19.4 19.4h-38.9c-10.7 0-19.4-8.7-19.4-19.4v-38.9c0-10.7-8.7-19.4-19.4-19.4h-38.9c-10.7 0-19.4-8.7-19.4-19.4v-38.9c-0.2-10.7 8.5-19.4 19.3-19.4zM493.3 646.5H182.2c-10.7 0-19.4-8.7-19.4-19.4s8.7-19.5 19.4-19.5h311.2c10.7 0 19.4 8.7 19.4 19.5 0 10.7-8.7 19.4-19.5 19.4zM843.4 568.7H182.2c-10.7 0-19.4-8.7-19.4-19.4s8.7-19.4 19.4-19.4h661.2c10.7 0 19.4 8.7 19.4 19.4 0.1 10.7-8.7 19.4-19.4 19.4zM843.4 490.9H182.2c-10.7 0-19.4-8.7-19.4-19.4s8.7-19.4 19.4-19.4h661.2c10.7 0 19.4 8.7 19.4 19.4 0.1 10.7-8.7 19.4-19.4 19.4z" fill="#FFFFFF" p-id="2329"></path></svg>