<svg t="1753945709411" class="icon" viewBox="0 0 1024 1024" version="1.1" xmlns="http://www.w3.org/2000/svg" p-id="17517" width="16" height="16"><path d="M490.24 960.64l-108.16-94.08H165.76c-56.96 0-102.4-45.44-102.4-102.4V263.68c0-56.96 45.44-102.4 102.4-102.4h341.76c23.04 0 42.88 19.84 42.88 42.88s-19.84 42.88-42.88 42.88H165.76c-8.32 0-17.28 8.32-17.28 17.28v500.48c0 8.32 8.32 17.28 17.28 17.28h247.68l74.24 65.28 74.24-65.28h258.56c8.32 0 17.28-8.32 17.28-17.28V514.56c0-23.04 19.84-42.88 42.88-42.88s42.88 19.84 42.88 42.88v247.68c0 56.96-45.44 102.4-102.4 102.4H593.28l-102.4 96.64zM666.24 211.2l54.4-54.4 146.56 146.56-54.4 54.4-146.56-146.56z" fill="#3D4757" p-id="17518"></path><path d="M410.24 468.48l54.4-54.4 146.56 146.56-54.4 54.4-146.56-146.56z" fill="#3D4757" p-id="17519"></path><path d="M319.36 709.76l19.84-202.24 426.88-428.8a53.76 53.76 0 0 1 74.24 0l104.96 104.96c19.84 19.84 19.84 53.76 0 74.24L518.4 687.36l-199.04 23.04z m99.84-165.12l-5.76 68.48 65.28-8.32 387.2-384-59.52-59.52-386.56 384z" fill="#3D4757" p-id="17520"></path></svg>