<svg t="1755222596944" class="icon" viewBox="0 0 1024 1024" version="1.1" xmlns="http://www.w3.org/2000/svg" p-id="4412" width="16" height="16"><path d="M864 784h-80v80h-11.2v32h80a41.6 41.6 0 0 0 43.2-41.6v-132.8h-32zM864 529.6h32v64h-32zM676.8 864h64v32h-64zM864 625.6h32v64h-32zM864 241.6h32v64h-32zM864 337.6h32v64h-32zM864 433.6h32v64h-32zM128 339.2h32v64H128zM128 243.2h32v64H128zM128 435.2h32v64H128zM478.4 128h64v32h-64zM128 531.2h32v64H128zM574.4 128h64v32h-64zM388.8 864h64v32h-64zM382.4 128h64v32h-64zM580.8 864h64v32h-64zM128 627.2h32v64H128zM484.8 864h64v32h-64zM292.8 864h64v32h-64zM286.4 128h64v32h-64zM670.4 128h64v32h-64zM240 160h14.4V128h-84.8A41.6 41.6 0 0 0 128 169.6V240h112zM854.4 128h-88v32H784v80h112v-70.4A41.6 41.6 0 0 0 854.4 128zM240 784h-80v-60.8H128v131.2a41.6 41.6 0 0 0 41.6 41.6h91.2v-32H240zM512 640a128 128 0 1 0-128-128 128 128 0 0 0 128 128z m0-224a96 96 0 1 1-96 96 96 96 0 0 1 96-96z" fill="#3D4757" p-id="4413"></path><path d="M496 576h32v-48h48v-32h-48v-48h-32v48h-48v32h48v48z" fill="#3D4757" p-id="4414"></path></svg>