<svg t="1755485751248" class="icon" viewBox="0 0 1024 1024" version="1.1" xmlns="http://www.w3.org/2000/svg" p-id="2673" width="16" height="16"><path d="M256 195.2c-33.578667 0-60.8 27.221333-60.8 60.8v128a28.8 28.8 0 1 0 57.6 0V256c0-1.749333 1.450667-3.2 3.2-3.2h128a28.8 28.8 0 0 0 0-57.6H256zM252.8 640a28.8 28.8 0 1 0-57.6 0v128c0 33.578667 27.221333 60.8 60.8 60.8h128a28.8 28.8 0 1 0 0-57.6H256A3.2 3.2 0 0 1 252.8 768v-128zM800 611.2c15.914667 0 28.8 12.885333 28.8 28.8v128c0 33.578667-27.221333 60.8-60.8 60.8h-128a28.8 28.8 0 1 1 0-57.6h128a3.2 3.2 0 0 0 3.2-3.2v-128c0-15.914667 12.885333-28.8 28.8-28.8zM640 195.2a28.8 28.8 0 1 0 0 57.6h128c1.749333 0 3.2 1.450667 3.2 3.2v128a28.8 28.8 0 1 0 57.6 0V256c0-33.578667-27.221333-60.8-60.8-60.8h-128z" fill="#3D4757" p-id="2674"></path><path d="M412.8 384a28.8 28.8 0 1 0-57.6 0v256a28.8 28.8 0 0 0 57.6 0V384zM512 355.2c15.914667 0 28.8 12.928 28.8 28.8v256a28.8 28.8 0 0 1-57.6 0V384c0-15.872 12.885333-28.8 28.8-28.8zM640 355.2c15.914667 0 28.8 12.928 28.8 28.8v256a28.8 28.8 0 0 1-57.6 0V384c0-15.872 12.885333-28.8 28.8-28.8z" fill="#3D4757" p-id="2675"></path></svg>