<svg t="1754461605847" class="icon" viewBox="0 0 1024 1024" version="1.1" xmlns="http://www.w3.org/2000/svg" p-id="13114" width="16" height="16"><path d="M592.842105 862.315789v-53.894736h377.263158v53.894736h-377.263158z m269.473684-377.263157h107.789474v53.894736h-107.789474V485.052632zM485.052632 161.684211h485.052631v53.894736H485.052632V161.684211zM53.894737 161.684211h161.68421v53.894736H53.894737V161.684211z m538.947368 377.263157H53.894737V485.052632h538.947368v53.894736z m-269.473684 323.368421H53.894737v-53.894736h269.473684v53.894736z" fill="#3D4757" p-id="13115"></path><path d="M485.052632 323.368421H215.578947V53.894737h269.473685v269.473684zM269.473684 269.473684h161.684211V107.789474H269.473684v161.68421zM862.315789 646.736842h-269.473684V377.263158h269.473684v269.473684z m-215.578947-53.894737h161.684211V431.157895h-161.684211v161.68421zM592.842105 970.105263H323.368421v-269.473684h269.473684v269.473684z m-215.578947-53.894737h161.68421v-161.68421H377.263158v161.68421z" fill="#3D4757" p-id="13116"></path></svg>