<svg width="16" height="16" xmlns="http://www.w3.org/2000/svg" fill="none">
 <g>
  <title>Layer 1</title>
  <path id="svg_1" fill="#454D5A" d="m2.65886,13.39606l-0.77216,-0.69449l3.38456,-3.04303l-2.50209,0l0,-0.98157l4.37034,0l0,3.92865l-1.09258,0l0.00088,-2.25573l-3.38806,3.04618l-0.00088,0l-0.00001,-0.00001zm10.71223,0l-3.38894,-3.04618l0,2.25573l-1.09171,0l0,-3.92865l4.37034,0l0,0.98236l-2.50209,-0.00079l3.38456,3.04303l-0.77216,0.69449l0,0.00001zm-10.60192,-6.29213l0,-0.98236l2.50296,0.00079l-3.38543,-3.04303l0.77216,-0.69449l3.38894,3.04618l0,-2.25573l1.09171,0l0,3.92865l-4.37034,0l0,-0.00001zm6.12127,0l0,-3.92865l1.09258,0l-0.00088,2.25573l3.38806,-3.04618l0.77304,0.69449l-3.38543,3.04303l2.50296,0l0,0.98157l-4.37034,0l0.00001,0.00001z"/>
 </g>

</svg>