<svg t="1756188628355" class="icon" viewBox="0 0 1024 1024" version="1.1" xmlns="http://www.w3.org/2000/svg" p-id="5068" width="16" height="16"><path d="M171.035621 132.923098l-46.334291-5.119811 7.03974-63.613654 46.334292 5.119811c121.019537 13.439504 169.337756 163.641966 78.845092 245.110962a77.117156 77.117156 0 0 0 27.135 130.42719l14.271474 4.799823-20.223255 60.669763-14.271473-4.735825c-102.588217-34.17474-130.1712-166.393864-49.726167-238.711198 49.406178-44.542358 23.03915-126.587332-43.070412-133.947061z" fill="#3D4757" p-id="5069"></path><path d="M455.697124 120.571554C502.991381 46.974268 598.283867-12.543537 736.454772 2.303915c112.763842 12.031556 176.633487 71.421366 207.672342 142.074761 29.8229 67.581508 28.798938 143.034726 19.071296 192.632897-56.829904 459.759046-387.441713 610.537486-563.435223 666.151435-90.04468 28.414952-176.633487 28.158962-235.703308-3.455872-30.270884-16.191403-53.886013-41.086485-64.573619-74.365258-10.623608-33.022782-7.295731-70.205411 8.255695-108.987981 25.407063-63.677652 35.134704-99.324337 36.926639-118.075646-28.798938 1.407948-93.436555 1.983927-126.075351-63.293666l-0.83197-1.663939-0.639976-1.727936c-19.839268-54.589987-21.119221-102.652215-9.471651-139.13087C18.785236 457.967112 45.216261 426.224283 83.294857 426.224283c22.911155 0 46.334291 5.823785 61.693725 26.367028 13.439504 17.983337 15.359434 40.95849 15.359433 59.773796a431.088104 431.088104 0 0 1-0.25599 15.295436c7.487724 0.447983 19.071297 0 36.990636-1.91993 58.749834-6.591757 93.436555 30.974858 111.739879 59.709799 2.687901 4.223844 5.119811 8.511686 7.423727 12.607535 3.51987-3.51987 7.03974-7.231733 10.367617-10.943597 7.487724-8.511686 12.543537-15.99941 14.975448-21.6952a18.815306 18.815306 0 0 0 1.279953-3.775861 532.33237 532.33237 0 0 1-35.774681-99.196342 232.119441 232.119441 0 0 1-7.679717-61.053748c0.703974-18.367323 5.503797-43.326402 26.367028-59.005825a70.397404 70.397404 0 0 1 36.35066-14.719457 58.621838 58.621838 0 0 1 34.558725 7.935708c17.599351 10.239622 27.646981 27.262995 32.126816 38.526579l1.08796 2.751898 0.639976 2.879894c2.559906 12.73553 8.95967 35.774681 19.967264 60.605765 11.007594 24.95908 25.599056 49.598171 43.454397 67.453513 6.78375 6.78375 10.879599 7.487724 12.159552 7.679717 1.471946 0.063998 4.223844-0.127995 8.767677-2.943892a44.606355 44.606355 0 0 0 5.95178-4.351839 122.555481 122.555481 0 0 1-53.95001-70.141414c-11.071592-36.222664-6.399764-73.725281 0.895966-97.532403l0.767972-2.559906 1.215955-2.367912a25.791049 25.791049 0 0 0 2.559906-10.879599 8.063703 8.063703 0 0 0-0.319988-1.919929c-33.982747-18.559316-48.766202-54.142004-50.17415-89.468701-1.407948-36.414657 10.623608-76.669173 33.854751-112.763842zM342.933283 561.003313v0.191993a0.639976 0.639976 0 0 1 0-0.191993z m-182.585268-25.599056v-0.063998z m325.491998-304.628767c0.831969 21.119221 8.895672 31.934822 17.855342 36.414657l1.791933 0.895967 1.663939 1.08796c21.503207 14.335471 28.542947 35.838678 29.118926 53.630023 0.447983 15.103443-3.583868 28.926933-7.871709 38.526579-4.287842 15.359434-6.399764 38.078596-0.319989 57.981862 5.631792 18.43132 18.559316 36.030671 50.302146 43.966379l38.654574 9.663643-17.791344 35.710683c-8.831674 17.663349-26.239032 43.518395-51.006119 58.557841a77.885128 77.885128 0 0 1-48.382216 11.903561c-19.071297-1.855932-36.286662-11.199587-51.198112-26.047039-25.471061-25.535058-43.966379-57.981862-56.701909-86.844798a386.545746 386.545746 0 0 1-23.423136-70.205411 22.015188 22.015188 0 0 0-2.559906-3.711863 20.60724 20.60724 0 0 0-0.831969 0.639976 30.974858 30.974858 0 0 0-1.727937 10.751604c-0.383986 11.135589 1.663939 26.239032 5.887783 43.64639 8.383691 34.494728 23.231143 70.589397 31.358844 86.844798 10.30362 20.60724 6.207771 41.342475-0.127995 56.317923a149.562485 149.562485 0 0 1-25.919044 38.910565 335.219639 335.219639 0 0 1-28.22296 27.966969c-3.839858 3.391875-7.231733 6.399764-9.919634 8.639681l-0.639976 0.639977a406.385015 406.385015 0 0 0-3.391875 2.879894l-0.959965 0.895967v-0.063998a33.662759 33.662759 0 0 1-37.69461 6.847747 37.69461 37.69461 0 0 1-14.65546-12.287546c-3.51987-4.799823-6.463762-10.879599-8.319693-14.65546v-0.127995l-1.919929-3.967854c-4.031851-8.447688-8.319693-17.34336-14.079481-26.367028-13.311509-20.927228-28.222959-33.022782-50.686131-30.526874a266.870159 266.870159 0 0 1-52.030081 1.919929c-13.439504-1.279953-28.926933-4.991816-40.702499-16.703384a54.909975 54.909975 0 0 1-15.039446-36.478655 254.582612 254.582612 0 0 1 0-19.199292v-6.399764c0-7.935707-0.447983-13.439504-1.279952-17.215365a19.967264 19.967264 0 0 0-1.08796-3.775861 33.918749 33.918749 0 0 0-10.687606-1.215955h0.25599c0 0.191993-8.511686 1.791934-14.91145 21.759198-6.271769 19.647276-7.551722 52.222074 7.935708 95.932462 14.335471 27.007004 36.862641 26.559021 65.917569 26.04704 4.223844-0.063998 8.511686-0.191993 12.991521-0.191993 11.711568 0 28.670943 3.071887 40.95849 18.111332 11.263585 13.759493 13.119516 31.102853 12.415542 45.886308-1.407948 29.694905-14.719457 74.877239-41.726462 142.330751-11.519575 28.862936-11.64757 50.366143-6.719752 65.597582 4.799823 14.975448 15.615424 27.838973 33.854752 37.566614 37.886603 20.287252 104.764137 24.575094 186.233132-1.151957 166.713852-52.670058 467.438763-190.456977 519.276852-614.121355l0.191993-1.151957 0.191993-1.215955c8.191698-40.702499 8.639681-102.716212-14.591462-155.450268-22.143183-50.302145-66.557546-94.716507-155.962249-104.316153-114.555776-12.159552-186.169135 36.478655-220.087884 89.340705-17.407358 27.007004-24.511096 54.461992-23.679127 75.645211z m-117.883653 160.634077z" fill="#3D4757" p-id="5070"></path></svg>