<svg xmlns="http://www.w3.org/2000/svg" xml:space="preserve" id="图层_1" x="0" y="0" version="1.1" viewBox="0 0 16 16"><style>.st0{fill:#3d4757}</style><g id="_x30_0-公共_x2F_02工具栏_x2F_插入图片-16px-"><g id="Group-19" transform="translate(1 1)"><path id="Combined-Shape" d="M1 0h12c.6 0 1 .4 1 1v11c0 .6-.4 1-1 1H1c-.6 0-1-.4-1-1V1c0-.6.4-1 1-1m0 1v11h12V1z" class="st0"/><circle id="椭圆形" cx="10" cy="4" r="1" class="st0"/><path id="Path" d="m8.5 11.2-4-4.1L1 10.7V9.2c1.7-1.6 2.7-2.5 3-2.8.4-.5.7-.4 1 0L8.5 10 11 7.3c.4-.5.6-.5 1-.1l2 2.8v1.5l-2.5-3.4z" class="st0"/></g></g></svg>