<?xml version="1.0" standalone="no"?><!DOCTYPE svg PUBLIC "-//W3C//DTD SVG 1.1//EN" "http://www.w3.org/Graphics/SVG/1.1/DTD/svg11.dtd"><svg t="1753842421040" class="icon" viewBox="0 0 1024 1024" version="1.1" xmlns="http://www.w3.org/2000/svg" p-id="3180" xmlns:xlink="http://www.w3.org/1999/xlink" width="16" height="16"><path d="M82.261333 365.568h64a9.173333 9.173333 0 0 0 9.130667-9.130667V155.306667h201.173333a9.173333 9.173333 0 0 0 9.130667-9.173334v-64a9.173333 9.173333 0 0 0-9.130667-9.130666H150.826667a77.653333 77.653333 0 0 0-77.696 77.696v205.738666c0 5.034667 4.096 9.130667 9.130666 9.130667zM667.392 155.306667h201.173333v201.130666c0 5.034667 4.096 9.130667 9.130667 9.130667h64a9.173333 9.173333 0 0 0 9.130667-9.130667V150.698667a77.653333 77.653333 0 0 0-77.696-77.696h-205.738667a9.173333 9.173333 0 0 0-9.130667 9.130666v64c0 5.034667 4.138667 9.173333 9.130667 9.173334zM356.565333 868.437333H155.392V667.306667a9.173333 9.173333 0 0 0-9.130667-9.173334h-64a9.173333 9.173333 0 0 0-9.130666 9.130667v205.738667a77.653333 77.653333 0 0 0 77.696 77.696h205.738666a9.173333 9.173333 0 0 0 9.130667-9.130667v-64a9.173333 9.173333 0 0 0-9.130667-9.130667z m585.130667-210.304h-64a9.173333 9.173333 0 0 0-9.130667 9.130667v201.173333h-201.173333a9.173333 9.173333 0 0 0-9.130667 9.130667v64c0 5.034667 4.138667 9.130667 9.130667 9.130667h205.738667a77.653333 77.653333 0 0 0 77.696-77.696V667.306667a9.173333 9.173333 0 0 0-9.130667-9.173334z" p-id="3181" fill="#3D4757"></path><path d="M298.666667 384a85.333333 85.333333 0 0 1 85.333333-85.333333h256a85.333333 85.333333 0 0 1 85.333333 85.333333v256a85.333333 85.333333 0 0 1-85.333333 85.333333H384a85.333333 85.333333 0 0 1-85.333333-85.333333V384z m341.333333 0H384v256h256V384z" p-id="3182" fill="#3D4757"></path></svg>