<svg t="1756188373395" class="icon" viewBox="0 0 1024 1024" version="1.1" xmlns="http://www.w3.org/2000/svg" p-id="2527" width="16" height="16"><path d="M270.208 119.68c107.008 66.816 144.64 188.288 88.064 288.256-9.024 16-18.752 30.848-31.552 48.512l-46.72 62.208-13.568 19.008c-45.568 66.624-61.952 150.272-46.08 235.712 4.352 23.232 11.008 45.696 19.84 66.752a51.904 51.904 0 0 1-40.32 71.424l-7.04 0.384-6.528-0.384a51.2 51.2 0 0 1-33.6-19.392l-3.84-5.632-3.072-6.144a435.072 435.072 0 0 1-26.048-87.936c-20.992-112.512 1.088-224 62.4-313.6l12.928-18.304c3.136-4.224 6.464-8.768 10.368-13.888l35.84-47.488c11.648-15.872 20.48-29.312 28.032-42.624 29.888-52.736 4.544-112.96-53.056-148.864a51.968 51.968 0 0 1 15.04-94.272 50.944 50.944 0 0 1 38.912 6.336z m548.096-6.272a52.032 52.032 0 0 1 14.912 94.272c-57.472 35.904-82.816 96.128-52.928 148.864 5.696 10.048 12.16 20.16 19.968 31.36l14.08 19.456 29.568 38.976c9.344 12.416 16.704 22.528 23.552 32.576 61.312 89.6 83.392 200.96 62.464 313.6a435.2 435.2 0 0 1-26.176 87.872 51.2 51.2 0 0 1-67.328 27.392 51.904 51.904 0 0 1-27.008-67.648c8.768-21.12 15.488-43.52 19.84-66.816 15.872-85.44-0.512-169.024-46.08-235.648l-11.52-16.32-39.808-52.672a535.488 535.488 0 0 1-40.448-60.8c-56.64-99.904-19.008-221.376 88-288.128a50.944 50.944 0 0 1 30.912-7.616l8 1.28z m-405.376 452.48c33.792 0 72.768 13.44 103.68 39.744l9.984 9.28 3.968 4.352 3.648-3.392c26.56-23.68 60.352-37.248 93.76-41.6l12.544-1.152 11.136-0.32c30.336 0 55.552 22.848 55.552 51.84 0 26.688-21.248 48.128-48.064 51.456l-6.848 0.448c-39.168 0.768-70.784 21.376-70.784 81.152a48.896 48.896 0 0 1-4.48 20.608L576 779.904v48.32c0 23.936-16.128 44.16-38.08 49.984l-6.72 1.28-6.4 0.448a51.392 51.392 0 0 1-50.88-45.248l-0.384-6.4v-78.336c0-57.536-24.832-78.08-54.656-80.384l-6.016-0.256a51.456 51.456 0 0 1-51.2-51.712c0-28.48 22.848-51.712 51.2-51.712z" p-id="2528" fill="#3D4757"></path></svg>