<svg t="1754387343088" class="icon" viewBox="0 0 1024 1024" version="1.1" xmlns="http://www.w3.org/2000/svg" p-id="4086" width="16" height="16"><path d="M804.571429 124.342857A58.514286 58.514286 0 0 1 863.085714 182.857143v658.285714a58.514286 58.514286 0 0 1-58.514285 58.514286H219.428571A58.514286 58.514286 0 0 1 160.914286 841.142857V182.857143A58.514286 58.514286 0 0 1 219.428571 124.342857zM329.106286 731.392h-124.342857L204.8 841.142857a14.628571 14.628571 0 0 0 11.702857 14.336L219.428571 855.771429l109.677715-0.036572v-124.342857z m329.142857 0h-292.571429v124.342857h292.571429v-124.342857z m160.914286 0h-124.342858v124.342857L804.571429 855.771429a14.628571 14.628571 0 0 0 14.336-11.702858L819.2 841.142857l-0.036571-109.750857z m-490.057143-402.285714h-124.342857v365.714285h124.342857v-365.714285z m329.142857 0h-292.571429v365.714285h292.571429v-365.714285z m160.914286 0h-124.342858v365.714285h124.342858v-365.714285z m-490.057143-160.914286L219.428571 168.228571a14.628571 14.628571 0 0 0-14.628571 14.628572l-0.036571 109.677714h124.342857v-124.342857z m329.142857 0h-292.571429v124.342857h292.571429v-124.342857zM804.571429 168.228571l-109.750858-0.036571v124.342857h124.342858L819.2 182.857143a14.628571 14.628571 0 0 0-11.702857-14.336L804.571429 168.228571z" fill="#3D4757" p-id="4087"></path></svg>