<svg t="1754441270835" class="icon" viewBox="0 0 1024 1024" version="1.1" xmlns="http://www.w3.org/2000/svg" p-id="11015" width="16" height="16"><path d="M568.88815 846.911746 182.781418 846.911746c-13.129019 0-13.790074-18.995633-13.790074-22.804379L168.991344 94.52791c0-11.291161 9.185196-19.822464 20.482497-19.822464l581.435419 0c18.611893 0 18.611893 9.837042 18.611893 13.782911l0 510.219447c0 7.609305 6.167466 13.790074 13.790074 13.790074 7.622608 0 13.791098-6.180769 13.791098-13.790074L817.102325 88.488357c0-25.524327-18.125823-41.362037-46.189995-41.362037L189.473841 47.12632c-26.499537 0-48.061622 20.900006-48.061622 47.40159l0 729.579457c0 29.665647 17.008372 50.390667 41.3692 50.390667L568.887127 874.498034c7.621585 0 13.791098-6.17463 13.791098-13.790074C582.678224 853.092515 576.510758 846.911746 568.88815 846.911746zM679.204651 364.286774 279.308869 364.286774c-7.622608 0-13.790074 6.173606-13.790074 13.789051 0 7.615445 6.16542 13.796214 13.790074 13.796214l399.895783 0c7.620561 0 13.790074-6.180769 13.790074-13.796214C692.994726 370.46038 686.826236 364.286774 679.204651 364.286774zM692.994726 543.549553c0-7.614421-6.167466-13.790074-13.790074-13.790074L279.308869 529.759479c-7.622608 0-13.790074 6.173606-13.790074 13.790074 0 7.609305 6.16542 13.791098 13.790074 13.791098l399.895783 0C686.826236 557.339628 692.994726 551.158858 692.994726 543.549553zM279.308869 681.44518c-7.622608 0-13.790074 6.173606-13.790074 13.791098 0 7.613398 6.16542 13.789051 13.790074 13.789051l206.842928 0c7.621585 0 13.790074-6.173606 13.790074-13.789051 0-7.615445-6.166443-13.791098-13.790074-13.791098L279.308869 681.44518zM679.204651 212.601072 279.308869 212.601072c-7.622608 0-13.790074 6.167466-13.790074 13.796214 0 7.608282 6.16542 13.782911 13.790074 13.782911l399.895783 0c7.620561 0 13.790074-6.17463 13.790074-13.782911C692.994726 218.768539 686.826236 212.601072 679.204651 212.601072zM909.601019 919.92055l-89.942475-90.23821c-1.399883-1.408069-3.044336-2.397606-4.780887-3.078105 16.927531-20.878516 26.152637-46.661739 26.13831-73.864288 0.025583-31.484062-12.255115-61.081147-34.567283-83.32987-22.300912-22.245653-51.954279-34.493605-83.626629-34.493605-31.486108 0-61.031005 12.267395-83.181491 34.547841-22.084994 22.228257-34.259268 51.798736-34.244942 83.269495 0 64.920592 52.707432 117.770264 117.492948 117.810173l0.014326 0c27.322275 0 53.219085-9.231245 74.159-26.158776 0.673335 1.728364 1.670036 3.366677 3.070942 4.773723l89.942475 90.231047c2.692319 2.700505 6.220678 4.053316 9.762341 4.053316 3.51608 0 7.043417-1.339508 9.737782-4.019547C914.960073 934.047292 914.986679 925.314397 909.601019 919.92055zM786.948561 816.512389c-17.116843 17.054421-39.84652 26.454512-64.032362 26.454512-49.596582-0.025583-89.942475-40.506553-89.942475-90.231047 0-24.13877 9.305947-46.809095 26.233478-63.830771 16.927531-17.028838 39.523155-26.40744 63.73458-26.40744 24.199145 0 46.944172 9.385764 64.032362 26.441209 17.076934 17.033955 26.474978 39.692001 26.460652 63.803141C813.451168 776.820388 804.037774 799.464107 786.948561 816.512389z" p-id="11016" fill="#3D4757"></path></svg>