<svg t="1754387248335" class="icon" viewBox="0 0 1024 1024" version="1.1" xmlns="http://www.w3.org/2000/svg" p-id="1606" width="16" height="16"><path d="M470.198857 197.485714c28.708571 0 52.297143 21.942857 54.820572 50.029715l0.219428 5.010285v115.894857h-43.885714v-115.931428c0-5.266286-3.657143-9.654857-8.594286-10.825143l-2.56-0.292571H106.24c-5.302857 0-9.691429 3.657143-10.861714 8.594285l-0.292572 2.56V781.897143c0 5.266286 3.657143 9.691429 8.594286 10.861714l2.56 0.292572h71.68v43.885714h-71.68c-28.708571 0-52.297143-21.979429-54.820571-50.029714L51.2 781.897143V252.525714c0-28.708571 21.942857-52.297143 50.029714-54.820571l5.010286-0.219429h363.958857z" fill="#3D4757" p-id="1607"></path><path d="M868.169143 841.142857v-357.010286a58.514286 58.514286 0 0 0-58.514286-58.514285H287.195429a58.514286 58.514286 0 0 0-58.514286 58.514285V841.142857a58.514286 58.514286 0 0 0 58.514286 58.514286h522.459428a58.514286 58.514286 0 0 0 58.514286-58.514286z m-43.885714-357.010286V841.142857a14.628571 14.628571 0 0 1-14.628572 14.628572H287.195429a14.628571 14.628571 0 0 1-14.628572-14.628572v-357.010286c0-8.045714 6.546286-14.628571 14.628572-14.628571h522.459428c8.045714 0 14.628571 6.582857 14.628572 14.628571zM651.264 94.427429a277.942857 277.942857 0 0 1 291.474286 254.025142l0.621714 8.996572-43.812571 2.304A234.057143 234.057143 0 0 0 661.942857 137.947429l-8.411428 0.292571-2.267429-43.812571z" fill="#3D4757" p-id="1608"></path><path d="M554.678857 117.248l115.273143-89.234286 9.398857 179.675429zM916.662857 421.485714l-89.234286-115.236571 179.675429-9.435429z" fill="#3D4757" p-id="1609"></path></svg>