<svg t="1754466799550" class="icon" viewBox="0 0 1024 1024" version="1.1" xmlns="http://www.w3.org/2000/svg" p-id="30737" width="16" height="16"><path d="M511.008 64.976c-245.92 0-446.032 200.096-446.032 446.032 0 245.952 200.064 446.016 446.032 446.016 245.952 0 446.016-200.064 446.016-446.032 0-245.92-200.064-446.016-446.032-446.016z m0 828.048c-210.656 0-382.032-171.392-382.032-382.032S300.336 128.976 511.008 128.976c210.624 0 382.016 171.36 382.016 382.032 0 210.624-171.392 382.016-382.032 382.016z m0-542.016c-88.224 0-160 71.776-160 160 0 88.208 71.76 160 160 160 88.224 0 160-71.776 160-160 0-88.24-71.792-160-160-160z" fill="#3D4757" p-id="30738" data-spm-anchor-id="a313x.search_index.0.i44.75263a81RJRqAh" class=""></path></svg>