<svg t="1754466615823" class="icon" viewBox="0 0 1024 1024" version="1.1" xmlns="http://www.w3.org/2000/svg" p-id="26647" width="16" height="16"><path d="M155 178v235h715V178H155z m-32-64h779c17.673 0 32 14.327 32 32v299c0 17.673-14.327 32-32 32H123c-17.673 0-32-14.327-32-32V146c0-17.673 14.327-32 32-32z m552.812 128.27L718 289.144l42.188-46.876c10.345-11.494 28.049-12.426 39.543-2.081s12.426 28.049 2.081 39.543l-63 70c-11.123 12.359-30.501 12.359-41.624 0l-63-70c-10.345-11.494-9.413-29.198 2.081-39.543 11.494-10.345 29.198-9.413 39.543 2.081zM157 603v235h715V603H157z m-32-64h779c17.673 0 32 14.327 32 32v299c0 17.673-14.327 32-32 32H125c-17.673 0-32-14.327-32-32V571c0-17.673 14.327-32 32-32z m552.812 127.27L720 713.144l42.188-46.876c10.345-11.494 28.049-12.426 39.543-2.081s12.426 28.049 2.081 39.543l-63 70c-11.123 12.359-30.501 12.359-41.624 0l-63-70c-10.345-11.494-9.413-29.198 2.081-39.543 11.494-10.345 29.198-9.413 39.543 2.081z" fill="#3D4757" p-id="26648"></path></svg>