<svg t="1747878891709" class="icon" viewBox="0 0 1024 1024" version="1.1" xmlns="http://www.w3.org/2000/svg" p-id="12380" width="16" height="16"><path d="M562.944 512L857.6 216.704c4.608-4.608 1.408-12.672-5.184-12.672H768.64c-1.92 0-3.84 0.704-5.12 2.112l-252.8 253.44-83.456-83.712a140.608 140.608 0 1 0-52.16 52.608L458.304 512 375.04 595.52a140.608 140.608 0 1 0 52.16 52.608L510.592 564.48l252.8 253.44c1.344 1.408 3.2 2.112 5.12 2.112h83.84a7.424 7.424 0 0 0 5.12-12.672L563.008 512zM304.832 380.672a74.112 74.112 0 0 1-73.984-73.984c0-40.768 33.216-73.984 73.984-73.984 40.768 0 73.984 33.216 73.984 73.984 0 40.768-33.216 73.984-73.984 73.984z m0 410.624a74.112 74.112 0 0 1-73.984-73.984c0-40.768 33.216-73.984 73.984-73.984 40.768 0 73.984 33.216 73.984 73.984 0 40.768-33.216 73.984-73.984 73.984z" fill="#3D4757" p-id="12381"></path></svg>