<svg t="1754289069755" class="icon" viewBox="0 0 1024 1024" version="1.1" xmlns="http://www.w3.org/2000/svg" p-id="7913" width="16" height="16"><path d="M630.343 197.885h-207.86c-10.205 120.579-20.102 219.425-29.692 296.496-9.605 77.1-18.901 143.396-27.898 198.881-8.998 55.486-18.308 106.038-27.896 151.62-7.803 35.4-19.208 63.149-34.191 83.24-15.006 20.086-37.206 34.04-66.594 41.837-24.004 5.998-47.846 1.197-71.539-14.393-23.704-15.604-37.948-34.197-42.743-55.796-3.598-16.194-4.501-29.837-2.698-40.94 1.798-11.103 5.091-21.449 9.9-31.05 4.795-9.59 10.189-18.294 16.195-26.095a641.349 641.349 0 0 1 18.897-23.4c1.798-2.381 12.147-14.695 31.045-36.897 18.898-22.175 33.142-42.427 42.746-60.735 9.587-18.286 15.59-38.536 17.995-60.738L310 197.883h-87.284c-24.608 0-48.001 5.85-70.193 17.546-22.2 11.695-39.297 25.346-51.289 40.942L62.538 313.96H31.045c8.393-23.39 18.898-51.427 31.493-84.134 12.596-32.69 29.993-64.342 52.195-94.935 17.391-25.793 40.788-48.145 70.187-67.043 29.388-18.892 63.577-28.335 102.583-28.335h687.5v158.373H742.83c-14.998 143.382-22.488 287.66-22.488 432.836 0 26.402 4.487 52.184 13.493 77.38 8.995 25.192 20.08 44.4 33.294 57.597 16.796 15.6 37.344 25.643 61.65 30.137 24.282 4.504 49.03-3.147 74.236-22.943 13.796-10.798 23.832-23.091 30.142-36.892 6.305-13.793 10.338-26.992 12.142-39.594 1.803-12.595 3.604-25.197 5.404-37.798H989.4c-0.601 49.801-8.105 94.644-22.502 134.537-14.393 39.893-31.488 71.984-51.289 96.276-19.798 24.302-39.3 41.848-58.494 52.635-21.599 13.197-46.784 21.155-75.588 23.856-28.79 2.707-55.198-4.052-79.176-20.247-39.596-28.8-69.608-74.084-90.007-135.877-11.388-35.995-17.846-83.533-19.347-142.629-1.499-59.087 0.449-116.83 5.853-173.23l31.494-296.044z" fill="#3D4757" p-id="7914"></path></svg>